<svg width="166" height="32" viewBox="0 0 166 32" fill="none" xmlns="http://www.w3.org/2000/svg">
<path d="M14.71 5.46068C15.3311 3.66621 17.8689 3.66621 18.49 5.46068L19.8611 9.4222C20.1399 10.2278 20.8987 10.7681 21.7511 10.7681H25.9058C27.8737 10.7681 28.6585 13.3115 27.0328 14.4203L23.8934 16.5615C23.1478 17.0701 22.8352 18.015 23.1304 18.868L24.38 22.4784C25.0101 24.299 22.9547 25.8704 21.3631 24.7848L17.7269 22.3048C17.0472 21.8411 16.1528 21.8411 15.4731 22.3048L11.8369 24.7848C10.2453 25.8704 8.18987 24.299 8.82001 22.4784L10.0696 18.868C10.3648 18.015 10.0522 17.0701 9.30656 16.5615L6.16722 14.4203C4.54147 13.3115 5.32627 10.7681 7.29417 10.7681H11.4489C12.3013 10.7681 13.0601 10.2278 13.3389 9.4222L14.71 5.46068Z" fill="#E1AC25"/>
<path d="M47.91 5.46068C48.5311 3.66621 51.0689 3.66621 51.69 5.46068L53.0611 9.4222C53.3399 10.2278 54.0987 10.7681 54.9511 10.7681H59.1058C61.0737 10.7681 61.8585 13.3115 60.2328 14.4203L57.0934 16.5615C56.3478 17.0701 56.0352 18.015 56.3304 18.868L57.58 22.4784C58.2101 24.299 56.1547 25.8704 54.563 24.7848L50.9269 22.3048C50.2472 21.8411 49.3528 21.8411 48.6731 22.3048L45.0369 24.7848C43.4453 25.8704 41.3899 24.299 42.02 22.4784L43.2696 18.868C43.5648 18.015 43.2522 17.0701 42.5066 16.5615L39.3672 14.4203C37.7415 13.3115 38.5263 10.7681 40.4942 10.7681H44.6489C45.5013 10.7681 46.2601 10.2278 46.5389 9.4222L47.91 5.46068Z" fill="#E1AC25"/>
<path d="M81.11 5.46068C81.7311 3.66621 84.2689 3.66621 84.89 5.46068L86.2611 9.4222C86.5399 10.2278 87.2987 10.7681 88.1511 10.7681H92.3058C94.2737 10.7681 95.0585 13.3115 93.4328 14.4203L90.2934 16.5615C89.5478 17.0701 89.2352 18.015 89.5304 18.868L90.78 22.4784C91.4101 24.299 89.3547 25.8704 87.763 24.7848L84.1269 22.3048C83.4472 21.8411 82.5528 21.8411 81.873 22.3048L78.2369 24.7848C76.6453 25.8704 74.5899 24.299 75.22 22.4784L76.4696 18.868C76.7648 18.015 76.4522 17.0701 75.7066 16.5615L72.5672 14.4203C70.9415 13.3115 71.7263 10.7681 73.6942 10.7681H77.8489C78.7013 10.7681 79.4601 10.2278 79.7389 9.4222L81.11 5.46068Z" fill="#E1AC25"/>
<path d="M114.31 5.46068C114.931 3.66621 117.469 3.66621 118.09 5.46068L119.461 9.4222C119.74 10.2278 120.499 10.7681 121.351 10.7681H125.506C127.474 10.7681 128.259 13.3115 126.633 14.4203L123.493 16.5615C122.748 17.0701 122.435 18.015 122.73 18.868L123.98 22.4784C124.61 24.299 122.555 25.8704 120.963 24.7848L117.327 22.3048C116.647 21.8411 115.753 21.8411 115.073 22.3048L111.437 24.7848C109.845 25.8704 107.79 24.299 108.42 22.4784L109.67 18.868C109.965 18.015 109.652 17.0701 108.907 16.5615L105.767 14.4203C104.141 13.3115 104.926 10.7681 106.894 10.7681H111.049C111.901 10.7681 112.66 10.2278 112.939 9.4222L114.31 5.46068Z" fill="#E1AC25"/>
<path d="M147.51 5.46068C148.131 3.66621 150.669 3.66621 151.29 5.46068L152.661 9.4222C152.94 10.2278 153.699 10.7681 154.551 10.7681H158.706C160.674 10.7681 161.459 13.3115 159.833 14.4203L156.693 16.5615C155.948 17.0701 155.635 18.015 155.93 18.868L157.18 22.4784C157.81 24.299 155.755 25.8704 154.163 24.7848L150.527 22.3048C149.847 21.8411 148.953 21.8411 148.273 22.3048L144.637 24.7848C143.045 25.8704 140.99 24.299 141.62 22.4784L142.87 18.868C143.165 18.015 142.852 17.0701 142.107 16.5615L138.967 14.4203C137.341 13.3115 138.126 10.7681 140.094 10.7681H144.249C145.101 10.7681 145.86 10.2278 146.139 9.4222L147.51 5.46068Z" fill="#E1AC25"/>
</svg>
